<svg width="183" height="32" fill="none" xmlns="http://www.w3.org/2000/svg"><path fill-rule="evenodd" clip-rule="evenodd" d="M9.4 4.6H8c-2.12 0-4.17 1.36-4.17 5.28 0 3.78 1.88 5 4.17 5h1.4V4.61zM7.2 17l-4.16 9H0l4.58-9.64C2.43 15.3.99 13.4.99 9.87c0-4.93 3.25-7.4 7.11-7.4h3.93V26H9.4v-9H7.2zm52.27.67c0-5.3 1.97-8.7 5.79-8.7a5 5 0 013 .88l-.35 2.48a4.24 4.24 0 00-2.68-1.18c-1.81 0-3.1 2.12-3.1 6.38 0 4.23.96 6.65 3 6.65 1.23 0 2.17-.5 2.75-1.04l.58 1.94a4.83 4.83 0 01-3.4 1.28c-3.49 0-5.59-2.92-5.59-8.7zm-7.37.03v8.42h-2.53V9.21h2.53v7.82L56 9.2h2.56l-4.04 7.95 4.63 8.96H56.4l-4.3-8.42zm-11.87-1.58h4.17c0-2.88-.45-5-1.9-5-1.56 0-2.11 1.98-2.27 5zm2.78 10.24c-3.37 0-5.44-2.79-5.44-7.99 0-5.44 1.46-9.4 4.92-9.4 2.72 0 4.5 2.12 4.5 7.86v1.44h-6.8c0 3.83 1.04 5.84 3.04 5.84 1.43 0 2.56-.67 3.2-1.14l.59 2.01a6.27 6.27 0 01-4.01 1.38zM32.28 11.32h-2.81v.3c0 3.56-.16 8.77-1.52 12.36h4.33V11.32zm3.78 18.13H33.8v-3.33h-6.99v3.33h-2.26v-5.47h1c1.5-3.6 1.65-8.83 1.65-13.33V9.21h7.57v14.77h1.3v5.47zM23.1 9.2v16.91h-2.5v-7.58h-3.75v7.58h-2.52V9.21h2.52v7.18h3.76V9.21h2.49zm63.44-7.12H79.5v24.1h-1.65V.63H88.2v25.55h-1.65V2.1zm10 23.1c1.06 0 1.9-.69 2.55-2.06.63-1.37.95-3.49.95-6.34 0-2.39-.27-4.23-.82-5.55-.55-1.3-1.31-1.96-2.28-1.96-.38 0-.73.1-1.07.3-.36.22-.68.49-.96.8-.3.34-.57.73-.81 1.17-.24.44-.45.9-.63 1.37V23c.33.74.74 1.3 1.22 1.65.49.36 1.1.53 1.85.53zm-.1 1.32c-.6 0-1.2-.15-1.73-.45a3.7 3.7 0 01-1.24-1.13v6.83h-1.55V8.17h1.35l.13 2.97a8.4 8.4 0 011.5-2.3 3 3 0 012.3-1.03c.69 0 1.3.22 1.85.65a4.98 4.98 0 011.39 1.8c.37.78.66 1.7.86 2.79.2 1.08.3 2.28.3 3.6 0 3.3-.48 5.78-1.42 7.4-.95 1.64-2.2 2.46-3.74 2.46zm11.4-1.33a2.4 2.4 0 001.96-1.03 7.9 7.9 0 001.27-2.5v-4.97h-1.78c-1.39 0-2.41.35-3.07 1.07-.66.71-1 1.86-1 3.43 0 1.29.25 2.28.72 2.97a2.2 2.2 0 001.9 1.03zm3.7 1a11.53 11.53 0 01-.4-2.43c-.4.86-.9 1.54-1.49 2.04-.6.5-1.3.75-2.14.75a3.3 3.3 0 01-2.74-1.37 6.23 6.23 0 01-1.06-3.85c0-1.93.47-3.39 1.42-4.37.95-1 2.32-1.49 4.13-1.49h1.81V13.2c0-1.38-.23-2.38-.7-3-.45-.62-1.15-.93-2.07-.93a4 4 0 00-1.98.52c-.62.34-1.12.83-1.52 1.44l-.43-1.6c.33-.48.83-.9 1.5-1.27a4.96 4.96 0 012.43-.56c1.39 0 2.45.43 3.19 1.27.73.85 1.1 2.16 1.1 3.95v9.83c0 .62.03 1.25.1 1.88.07.63.16 1.11.27 1.45h-1.42zm6.17 0h-1.55v-18h1.55v8.47l5.58-8.47h1.52l-5.48 8.37 5.88 9.64h-1.72l-5.78-9.32v9.32zm13.44-16.61v16.61h-1.55V9.57h-3.86v-1.4h9.24v1.4h-3.83zm13.97 4.07a23.56 23.56 0 01.13-2.47h-.1c-.1.4-.24.79-.4 1.16-.15.4-.32.78-.49 1.17l-5.41 12.68h-1.32v-18h1.45v12.51c0 .85-.04 1.7-.13 2.54h.1a20.17 20.17 0 01.89-2.4l5.41-12.65h1.36v18.02h-1.49V13.64zm6.77 12.54h-1.55v-18h1.55v8.47l5.58-8.47H159l-5.48 8.37 5.88 9.64h-1.72l-5.78-9.32v9.32zm9.74 5.72a5.78 5.78 0 01-.85-.07l-.17-1.57a4.05 4.05 0 001.02.14c.58 0 1.06-.28 1.46-.84.4-.56.71-1.34.95-2.34l.14-.53-4.13-18.52h1.55l2.64 11.76a36.31 36.31 0 01.7 4.07h.1a47.87 47.87 0 01.79-4.07l2.57-11.76h1.4l-4.27 18.94c-.13.62-.3 1.22-.51 1.79-.2.54-.46 1.05-.78 1.52a4 4 0 01-1.09 1.07 2.7 2.7 0 01-1.52.41zm12.52-18.44c-.13-.48-.23-.92-.3-1.34-.06-.42-.15-.85-.26-1.3h-.13l.11 1.44c.03.5.05 1.06.05 1.7v12.22h-1.32v-18h1.82l2.9 11.01a14.34 14.34 0 01.53 3.04h.13a18.49 18.49 0 01.56-3.04l2.98-11H183v18h-1.49V13.97c0-1.06.04-2.12.14-3.18h-.14l-.24 1.4c-.08.42-.18.85-.28 1.28l-2.78 10.58h-1.29l-2.77-10.58z" fill="#000"/></svg>